<svg width="92" height="92" viewBox="0 0 92 92" fill="none" xmlns="http://www.w3.org/2000/svg">
<path d="M66.326 35.8719H48.156V32.7381C48.156 30.7899 47.3821 28.9216 46.0045 27.544C44.6269 26.1664 42.7585 25.3925 40.8104 25.3925H37.3747C36.6083 25.3396 35.8904 24.9979 35.3661 24.4362C34.8419 23.8746 34.5503 23.1349 34.5503 22.3666C34.5503 21.5983 34.8419 20.8586 35.3661 20.2969C35.8904 19.7353 36.6083 19.3935 37.3747 19.3406H52.8854C53.8538 19.3369 54.812 19.1424 55.7052 18.7683C56.5985 18.3942 57.4093 17.8479 58.0914 17.1604C58.7735 16.473 59.3136 15.6579 59.6807 14.7617C60.0478 13.8656 60.2348 12.9059 60.231 11.9375C60.231 11.3656 60.0038 10.8172 59.5994 10.4128C59.1951 10.0084 58.6466 9.78125 58.0747 9.78125C57.5029 9.78125 56.9544 10.0084 56.55 10.4128C56.1457 10.8172 55.9185 11.3656 55.9185 11.9375C55.9147 12.7408 55.5939 13.5101 55.0259 14.0781C54.4579 14.6461 53.6886 14.9668 52.8854 14.9706H37.3747C27.686 15.2725 27.6716 29.3456 37.3747 29.6475H40.7385C41.5429 29.6475 42.3144 29.9671 42.8832 30.5359C43.4521 31.1047 43.7716 31.8762 43.7716 32.6806V35.8H25.6016C19.7401 35.8493 14.1361 38.2154 10.0128 42.3818C5.88959 46.5481 3.5819 52.1764 3.59349 58.0381C3.44974 76.1794 24.8685 86.7881 39.1716 75.6763H52.8279C67.2029 86.8169 88.5497 76.1794 88.406 58.0381C88.3985 52.1765 86.0725 46.5558 81.9358 42.403C77.7991 38.2501 72.1875 35.9022 66.326 35.8719ZM28.1747 60.3094H24.4372V64.1044C24.4372 64.6763 24.2101 65.2247 23.8057 65.6291C23.4013 66.0335 22.8529 66.2606 22.281 66.2606C21.7091 66.2606 21.1607 66.0335 20.7563 65.6291C20.3519 65.2247 20.1247 64.6763 20.1247 64.1044V60.295H16.2722C15.7004 60.295 15.1519 60.0678 14.7475 59.6635C14.3432 59.2591 14.116 58.7106 14.116 58.1388C14.116 57.5669 14.3432 57.0184 14.7475 56.6141C15.1519 56.2097 15.7004 55.9825 16.2722 55.9825H20.1247V52.1875C20.1247 51.6156 20.3519 51.0672 20.7563 50.6628C21.1607 50.2584 21.7091 50.0313 22.281 50.0313C22.8529 50.0313 23.4013 50.2584 23.8057 50.6628C24.2101 51.0672 24.4372 51.6156 24.4372 52.1875V55.9825H28.1747C28.7466 55.9825 29.2951 56.2097 29.6994 56.6141C30.1038 57.0184 30.331 57.5669 30.331 58.1388C30.331 58.7106 30.1038 59.2591 29.6994 59.6635C29.2951 60.0678 28.7466 60.295 28.1747 60.295V60.3094ZM58.0747 61.1719C57.4771 61.1747 56.892 61.0001 56.3937 60.6701C55.8954 60.3402 55.5062 59.8697 55.2756 59.3184C55.0449 58.767 54.983 58.1596 55.0979 57.5731C55.2127 56.9865 55.4991 56.4473 55.9207 56.0237C56.3423 55.6001 56.8802 55.3111 57.4661 55.1935C58.0521 55.0758 58.6598 55.1348 59.2122 55.3628C59.7647 55.5909 60.237 55.9778 60.5694 56.4745C60.9017 56.9713 61.0791 57.5555 61.0791 58.1531C61.0753 58.9488 60.7576 59.7108 60.195 60.2734C59.6324 60.836 58.8704 61.1537 58.0747 61.1575V61.1719ZM65.9379 69.0206C65.3433 69.0121 64.7646 68.8282 64.2741 68.492C63.7837 68.1558 63.4035 67.6823 63.1812 67.1308C62.9589 66.5794 62.9044 65.9745 63.0245 65.3922C63.1447 64.8099 63.4341 64.276 63.8565 63.8576C64.279 63.4391 64.8155 63.1547 65.399 63.0401C65.9824 62.9254 66.5867 62.9856 67.136 63.2131C67.6854 63.4406 68.1553 63.8253 68.4869 64.3189C68.8184 64.8124 68.9968 65.3929 68.9997 65.9875C68.9998 66.3876 68.9203 66.7837 68.7659 67.1528C68.6115 67.5219 68.3853 67.8566 68.1004 68.1375C67.8155 68.4184 67.4776 68.6398 67.1063 68.789C66.7351 68.9381 66.3379 69.012 65.9379 69.0063V69.0206ZM65.9379 53.3088C65.3433 53.3003 64.7646 53.1164 64.2741 52.7802C63.7837 52.444 63.4035 51.9704 63.1812 51.419C62.9589 50.8675 62.9044 50.2627 63.0245 49.6803C63.1447 49.098 63.4341 48.5641 63.8565 48.1457C64.279 47.7272 64.8155 47.4429 65.399 47.3282C65.9824 47.2136 66.5867 47.2738 67.136 47.5013C67.6854 47.7288 68.1553 48.1134 68.4869 48.607C68.8184 49.1006 68.9968 49.681 68.9997 50.2756C68.9998 50.6757 68.9203 51.0718 68.7659 51.4409C68.6115 51.81 68.3853 52.1447 68.1004 52.4256C67.8155 52.7065 67.4776 52.9279 67.1063 53.0771C66.7351 53.2262 66.3379 53.3001 65.9379 53.2944V53.3088ZM73.7722 61.1719C73.1746 61.1747 72.5895 61.0001 72.0912 60.6701C71.5929 60.3402 71.2037 59.8697 70.9731 59.3184C70.7424 58.767 70.6805 58.1596 70.7954 57.5731C70.9102 56.9865 71.1966 56.4473 71.6182 56.0237C72.0398 55.6001 72.5777 55.3111 73.1636 55.1935C73.7496 55.0758 74.3573 55.1348 74.9098 55.3628C75.4622 55.5909 75.9345 55.9778 76.2668 56.4745C76.5992 56.9713 76.7766 57.5555 76.7766 58.1531C76.7728 58.9488 76.4551 59.7108 75.8925 60.2734C75.3299 60.836 74.5679 61.1537 73.7722 61.1575V61.1719Z" fill="url(#paint0_linear_3818_5140)"/>
<defs>
<linearGradient id="paint0_linear_3818_5140" x1="21.3967" y1="-2.65966" x2="98.236" y2="2.7402" gradientUnits="userSpaceOnUse">
<stop stop-color="#16C28A"/>
<stop offset="1" stop-color="#529DD6"/>
</linearGradient>
</defs>
</svg>
