<svg width="92" height="92" viewBox="0 0 92 92" fill="none" xmlns="http://www.w3.org/2000/svg">
<path d="M46.0001 3.95312C37.8475 3.96074 30.031 7.20271 24.2663 12.9675C18.5015 18.7322 15.2596 26.5487 15.252 34.7013C15.252 51.1463 43.4126 85.9194 44.5626 87.3856C44.7311 87.5929 44.9436 87.76 45.1849 87.8748C45.4261 87.9896 45.6898 88.0492 45.957 88.0492C46.2241 88.0492 46.4878 87.9896 46.7291 87.8748C46.9703 87.76 47.1828 87.5929 47.3513 87.3856C48.5444 85.9481 76.7051 51.1463 76.7051 34.7013C76.6975 26.5561 73.4614 18.7462 67.706 12.9827C61.9506 7.21915 54.1452 3.97214 46.0001 3.95312ZM46.0001 83.375C40.2501 76.0869 18.8457 47.9263 18.8457 34.7156C18.8457 27.5138 21.7066 20.607 26.799 15.5146C31.8915 10.4222 38.7983 7.56125 46.0001 7.56125C53.2019 7.56125 60.1087 10.4222 65.2011 15.5146C70.2936 20.607 73.1544 27.5138 73.1544 34.7156C73.1544 47.9119 51.7501 76.0725 46.0001 83.375Z" fill="url(#paint0_linear_3818_5148)"/>
<path d="M46 58.7793C59.298 58.7793 70.0781 47.9992 70.0781 34.7012C70.0781 21.4032 59.298 10.623 46 10.623C32.702 10.623 21.9219 21.4032 21.9219 34.7012C21.9219 47.9992 32.702 58.7793 46 58.7793Z" fill="url(#paint1_linear_3818_5148)"/>
<defs>
<linearGradient id="paint0_linear_3818_5148" x1="28.152" y1="-10.8987" x2="84.0003" y2="-8.51665" gradientUnits="userSpaceOnUse">
<stop stop-color="#16C28A"/>
<stop offset="1" stop-color="#529DD6"/>
</linearGradient>
<linearGradient id="paint1_linear_3818_5148" x1="32.0307" y1="2.11837" x2="75.7256" y2="4.66877" gradientUnits="userSpaceOnUse">
<stop stop-color="#16C28A"/>
<stop offset="1" stop-color="#529DD6"/>
</linearGradient>
</defs>
</svg>
