<svg width="92" height="92" viewBox="0 0 92 92" fill="none" xmlns="http://www.w3.org/2000/svg">
<path d="M87.2708 33.6803L67.6633 14.0728C67.394 13.8051 67.0296 13.6548 66.6499 13.6548C66.2701 13.6548 65.9057 13.8051 65.6364 14.0728L51.1608 28.5484C47.755 27.8584 44.2454 27.8584 40.8395 28.5484L26.3639 14.0728C26.0946 13.8051 25.7302 13.6548 25.3505 13.6548C24.9707 13.6548 24.6064 13.8051 24.337 14.0728L4.72954 33.6803C4.4618 33.9496 4.31152 34.314 4.31152 34.6937C4.31152 35.0735 4.4618 35.4378 4.72954 35.7072L19.8664 50.844C19.9884 50.9587 20.1295 51.0511 20.2833 51.1172C20.1796 52.0432 20.1269 52.9741 20.1252 53.9059C20.1252 60.7684 22.8513 67.3498 27.7038 72.2023C32.5563 77.0548 39.1377 79.7809 46.0002 79.7809C52.8626 79.7809 59.444 77.0548 64.2966 72.2023C69.1491 67.3498 71.8752 60.7684 71.8752 53.9059C71.8735 52.9741 71.8207 52.0432 71.717 51.1172C71.8708 51.0511 72.0119 50.9587 72.1339 50.844L87.2708 35.7072C87.5385 35.4378 87.6888 35.0735 87.6888 34.6937C87.6888 34.314 87.5385 33.9496 87.2708 33.6803ZM46.0002 76.9059C41.4512 76.9059 37.0044 75.557 33.222 73.0297C29.4397 70.5024 26.4917 66.9103 24.7509 62.7076C23.0101 58.5049 22.5546 53.8804 23.4421 49.4188C24.3296 44.9573 26.5201 40.8591 29.7367 37.6425C32.9533 34.4259 37.0515 32.2353 41.5131 31.3479C45.9747 30.4604 50.5992 30.9159 54.8019 32.6567C59.0046 34.3975 62.5967 37.3455 65.124 41.1278C67.6512 44.9101 69.0002 49.357 69.0002 53.9059C69.0002 60.0059 66.577 65.856 62.2636 70.1694C57.9503 74.4827 52.1001 76.9059 46.0002 76.9059Z" fill="url(#paint0_linear_3818_5156)"/>
<path d="M46 33.7813C42.0197 33.7812 38.1287 34.9616 34.8192 37.1729C31.5096 39.3843 28.9301 42.5274 27.4069 46.2047C25.8837 49.8821 25.4852 53.9286 26.2617 57.8324C27.0382 61.7363 28.955 65.3222 31.7695 68.1368C34.584 70.9513 38.1699 72.868 42.0738 73.6446C45.9777 74.4211 50.0241 74.0225 53.7015 72.4993C57.3789 70.9761 60.522 68.3966 62.7333 65.0871C64.9447 61.7776 66.125 57.8866 66.125 53.9062C66.125 48.5688 64.0047 43.4499 60.2305 39.6757C56.4564 35.9016 51.3375 33.7813 46 33.7813ZM57.9313 51.175L53.0006 55.9619L54.165 62.7325C54.2163 63.002 54.1895 63.2806 54.0876 63.5353C53.9857 63.79 53.813 64.0102 53.59 64.17C53.3473 64.3457 53.0558 64.4412 52.7563 64.4431C52.5222 64.4402 52.2917 64.3862 52.0806 64.285L46 61.0506L39.9194 64.2563C39.682 64.3794 39.415 64.4338 39.1483 64.4135C38.8817 64.3932 38.626 64.2989 38.41 64.1412C38.187 63.9815 38.0143 63.7612 37.9124 63.5065C37.8106 63.2518 37.7837 62.9732 37.835 62.7037L38.9994 55.9331L34.0688 51.175C33.884 50.9906 33.7529 50.7594 33.6896 50.5061C33.6263 50.2529 33.6331 49.9872 33.7094 49.7375C33.7927 49.482 33.946 49.255 34.1518 49.0822C34.3576 48.9094 34.6077 48.7978 34.8738 48.76L41.6875 47.725L44.7206 41.5725C44.8383 41.3295 45.0221 41.1245 45.2509 40.9811C45.4798 40.8377 45.7443 40.7616 46.0144 40.7616C46.2844 40.7616 46.549 40.8377 46.7778 40.9811C47.0066 41.1245 47.1904 41.3295 47.3081 41.5725L50.3125 47.725L57.1119 48.7169C57.3779 48.7547 57.6281 48.8663 57.8339 49.0391C58.0397 49.2119 58.1929 49.4389 58.2763 49.6944C58.3629 49.9487 58.3765 50.2223 58.3155 50.484C58.2545 50.7457 58.1214 50.9851 57.9313 51.175Z" fill="url(#paint1_linear_3818_5156)"/>
<defs>
<linearGradient id="paint0_linear_3818_5156" x1="21.8139" y1="1.97652" x2="97.3157" y2="7.53313" gradientUnits="userSpaceOnUse">
<stop stop-color="#16C28A"/>
<stop offset="1" stop-color="#529DD6"/>
</linearGradient>
<linearGradient id="paint1_linear_3818_5156" x1="34.3242" y1="26.6729" x2="70.8453" y2="28.8045" gradientUnits="userSpaceOnUse">
<stop stop-color="#16C28A"/>
<stop offset="1" stop-color="#529DD6"/>
</linearGradient>
</defs>
</svg>
