<svg width="192" height="64" viewBox="0 0 192 64" fill="none" xmlns="http://www.w3.org/2000/svg">
<g clip-path="url(#clip0_3818_5656)">
<path d="M175.988 0H15.6295C15.1513 0 14.5137 0 13.8761 0C13.3979 0 12.9197 0 12.4415 0C11.3256 0 10.3692 0.16 9.25342 0.32C8.29701 0.48 7.1812 0.8 6.22479 1.28C5.26838 1.76 4.47137 2.4 3.67436 3.2C2.87735 4 2.23975 4.8 1.76154 5.76C1.28334 6.72 0.964533 7.84 0.805131 8.8C0.64573 9.92 0.486328 11.04 0.486328 12C0.486328 12.48 0.486328 12.96 0.486328 13.44V50.4C0.486328 50.88 0.486328 51.36 0.486328 51.84C0.486328 52.96 0.64573 53.92 0.805131 55.04C0.964533 56.16 1.28334 57.12 1.76154 58.08C2.23975 59.2 2.87735 60 3.67436 60.8C4.47137 61.6 5.26838 62.24 6.22479 62.72C7.1812 63.2 8.13761 63.52 9.25342 63.68C10.3692 63.84 11.3256 64 12.4415 64C12.9197 64 13.3979 64 13.8761 64C14.5137 64 14.9919 64 15.6295 64H175.988C176.625 64 177.103 64 177.741 64C178.219 64 178.697 64 179.176 64C180.291 64 181.248 63.84 182.364 63.68C183.479 63.52 184.436 63.2 185.392 62.72C186.349 62.24 187.146 61.6 187.943 60.8C188.74 60 189.377 59.2 189.855 58.24C190.334 57.28 190.652 56.32 190.812 55.2C190.971 54.08 191.131 53.12 191.131 52C191.131 51.52 191.131 51.04 191.131 50.56C191.131 49.92 191.131 49.44 191.131 48.8V15.2C191.131 14.56 191.131 14.08 191.131 13.44C191.131 12.96 191.131 12.48 191.131 12C191.131 10.88 190.971 9.92 190.812 8.8C190.652 7.68 190.334 6.72 189.855 5.76C188.899 3.84 187.305 2.24 185.392 1.28C184.436 0.8 183.479 0.48 182.364 0.32C181.248 0.16 180.291 0 179.176 0C178.697 0 178.219 0 177.741 0C177.263 0 176.625 0 175.988 0Z" fill="#A6A6A6"/>
<path d="M13.8762 62.5604C13.398 62.5604 12.9198 62.5604 12.4416 62.5604C11.4852 62.5604 10.3694 62.4004 9.413 62.2404C8.45659 62.0804 7.65958 61.7604 6.70317 61.4404C5.90616 60.9604 5.10915 60.4804 4.47155 59.8404C3.83394 59.2004 3.19633 58.4004 2.87753 57.6004C2.39933 56.8004 2.23992 55.8404 2.08052 54.8804C1.92112 53.9204 1.76172 52.9604 1.76172 51.8404C1.76172 51.5204 1.76172 50.4004 1.76172 50.4004V13.4404C1.76172 13.4404 1.76172 12.3204 1.76172 12.0004C1.76172 11.0404 1.92112 9.92043 2.08052 8.96043C2.23992 8.16043 2.55873 7.20043 3.03693 6.40043C3.51514 5.60043 3.99334 4.80043 4.63095 4.16043C5.26855 3.52043 6.06556 3.04043 6.86257 2.56043C7.65958 2.08043 8.61599 1.92043 9.5724 1.76043C10.5288 1.60043 11.4852 1.44043 12.601 1.44043H14.0356H177.901H179.335C180.292 1.44043 181.248 1.60043 182.364 1.76043C183.32 1.92043 184.117 2.24043 185.074 2.56043C186.668 3.36043 188.102 4.80043 188.899 6.40043C189.377 7.20043 189.537 8.16043 189.696 8.96043C189.856 9.92043 190.015 11.0404 190.015 12.0004C190.015 12.4804 190.015 12.9604 190.015 13.4404C190.015 14.0804 190.015 14.5604 190.015 15.2004V48.6404C190.015 49.2804 190.015 49.7604 190.015 50.4004C190.015 50.8804 190.015 51.3604 190.015 51.8404C190.015 52.8004 189.856 53.7604 189.696 54.8804C189.537 55.8404 189.218 56.6404 188.899 57.6004C188.421 58.4004 187.943 59.2004 187.305 59.8404C186.668 60.4804 185.871 61.1204 185.074 61.4404C184.277 61.9204 183.32 62.2404 182.364 62.2404C181.407 62.4004 180.451 62.5604 179.335 62.5604C178.857 62.5604 178.379 62.5604 177.901 62.5604H176.147H13.8762Z" fill="black" fill-opacity="0.7"/>
<path d="M40.0183 32.4801C40.0183 29.7601 41.4529 27.2001 43.8439 25.7601C42.4093 23.6801 40.0183 22.4001 37.4679 22.2401C34.7581 21.9201 32.2076 23.8401 30.773 23.8401C29.3384 23.8401 27.2662 22.2401 25.0346 22.2401C22.0059 22.4001 19.2961 24.0001 17.8615 26.5601C14.8328 31.8401 17.0645 39.8401 20.0931 44.1601C21.5277 46.2401 23.2811 48.6401 25.5128 48.6401C27.7444 48.4801 28.5414 47.2001 31.2512 47.2001C33.961 47.2001 34.5986 48.6401 36.9897 48.6401C39.3807 48.6401 40.8153 46.5601 42.2499 44.3201C43.3657 42.8801 44.1627 41.1201 44.641 39.3601C41.7717 38.4001 40.0183 35.5201 40.0183 32.4801Z" fill="#A6A6A6"/>
<path d="M35.5546 19.5199C36.8298 17.9199 37.4674 15.9999 37.308 13.9199C35.3952 14.0799 33.4824 15.0399 32.2072 16.6399C30.932 18.0799 30.2944 19.9999 30.4538 22.0799C32.526 22.0799 34.2794 21.1199 35.5546 19.5199Z" fill="#A6A6A6"/>
<path d="M67.9138 43.36H60.4219L58.6685 48.8H55.4805L62.6535 28.96H65.8416L73.0146 48.8H69.8266L67.9138 43.36ZM61.2189 40.96H67.2762L64.2476 32.16H64.0882L61.2189 40.96Z" fill="#A6A6A6"/>
<path d="M88.4769 41.5994C88.4769 46.0794 86.0858 48.9594 82.4196 48.9594C80.5068 49.1194 78.7534 47.9994 77.9564 46.3994V53.5994H74.9277V34.3994H77.797V36.7994C78.7534 35.1994 80.5068 34.2394 82.4196 34.2394C85.9264 34.0794 88.4769 37.1194 88.4769 41.5994ZM85.2888 41.5994C85.2888 38.7194 83.8542 36.7994 81.4632 36.7994C79.2316 36.7994 77.6376 38.7194 77.6376 41.5994C77.6376 44.4794 79.2316 46.3994 81.4632 46.3994C83.8542 46.3994 85.2888 44.4794 85.2888 41.5994Z" fill="#A6A6A6"/>
<path d="M104.257 41.5994C104.257 46.0794 101.866 48.9594 98.1999 48.9594C96.2871 49.1194 94.5336 47.9994 93.7366 46.3994V53.5994H90.708V34.3994H93.5772V36.7994C94.5337 35.1994 96.2871 34.2394 98.1999 34.2394C101.866 34.0794 104.257 37.1194 104.257 41.5994ZM101.229 41.5994C101.229 38.7194 99.7939 36.7994 97.4029 36.7994C95.1713 36.7994 93.5772 38.7194 93.5772 41.5994C93.5772 44.4794 95.1713 46.3994 97.4029 46.3994C99.7939 46.3994 101.229 44.4794 101.229 41.5994Z" fill="#A6A6A6"/>
<path d="M114.778 43.1997C114.938 45.1196 116.85 46.3997 119.56 46.3997C122.111 46.3997 123.864 45.1197 123.864 43.3597C123.864 41.7597 122.748 40.9597 120.198 40.3197L117.647 39.6796C113.981 38.7196 112.387 37.1196 112.387 34.3996C112.387 31.0396 115.416 28.6396 119.56 28.6396C123.705 28.6396 126.574 31.0396 126.733 34.3996H123.705C123.545 32.4796 121.951 31.1996 119.56 31.1996C117.169 31.1996 115.575 32.4796 115.575 34.2396C115.575 35.6796 116.691 36.4797 119.241 37.1197L121.473 37.5996C125.458 38.5597 127.212 40.1596 127.212 43.0396C127.212 46.7197 124.183 49.1197 119.56 49.1197C115.097 49.1197 112.228 46.8797 112.068 43.1997H114.778Z" fill="#A6A6A6"/>
<path d="M133.269 30.8799V34.2399H135.978V36.6399H133.269V44.6399C133.269 45.9199 133.747 46.3999 135.022 46.3999C135.341 46.3999 135.66 46.3999 135.978 46.3999V48.7999C135.5 48.9599 134.863 48.9599 134.384 48.9599C131.515 48.9599 130.399 47.8399 130.399 45.1199V36.7999H128.327V34.3999H130.399V31.0399H133.269V30.8799Z" fill="#A6A6A6"/>
<path d="M137.731 41.5993C137.731 37.1193 140.441 34.2393 144.586 34.2393C148.73 34.2393 151.44 37.1193 151.44 41.5993C151.44 46.2393 148.73 48.9593 144.586 48.9593C140.282 48.9593 137.731 46.0793 137.731 41.5993ZM148.411 41.5993C148.411 38.3993 146.977 36.6393 144.586 36.6393C142.195 36.6393 140.76 38.3993 140.76 41.5993C140.76 44.7993 142.195 46.5593 144.586 46.5593C146.977 46.5593 148.411 44.6393 148.411 41.5993Z" fill="#A6A6A6"/>
<path d="M153.831 34.2398H156.7V36.7998C157.019 35.1998 158.613 34.0798 160.207 34.2398C160.526 34.2398 160.845 34.2398 161.164 34.3998V37.1198C160.685 36.9598 160.207 36.9598 159.888 36.9598C158.294 36.9598 156.86 38.2398 156.86 39.8398C156.86 39.9998 156.86 40.1598 156.86 40.3198V48.9598H153.831V34.2398Z" fill="#A6A6A6"/>
<path d="M174.873 44.4801C174.554 47.0401 171.844 48.9601 168.656 48.9601C164.512 48.9601 161.802 46.0801 161.802 41.6001C161.802 37.1201 164.352 34.0801 168.497 34.0801C172.482 34.0801 175.032 36.8001 175.032 41.2801V42.2401H164.83V42.4001C164.671 44.4801 166.106 46.2401 168.178 46.5601C168.337 46.5601 168.497 46.5601 168.656 46.5601C170.091 46.7201 171.525 45.9201 172.003 44.4801H174.873ZM164.83 40.1601H172.003C172.163 38.2401 170.569 36.6401 168.656 36.4801C168.497 36.4801 168.497 36.4801 168.337 36.4801C166.424 36.4801 164.83 38.0801 164.83 40.1601Z" fill="#A6A6A6"/>
<path d="M60.7402 13.9207C63.1313 13.7607 65.0441 15.5207 65.2035 17.7607C65.2035 18.0807 65.2035 18.2407 65.2035 18.5607C65.2035 21.6007 63.6095 23.3607 60.7402 23.3607H57.2334V13.7607H60.7402V13.9207ZM58.8274 22.2407H60.5808C62.1749 22.4007 63.6095 21.1207 63.7689 19.3607C63.7689 19.2007 63.7689 18.8807 63.7689 18.7207C63.9283 17.1207 62.8125 15.5207 61.2184 15.3607C61.059 15.3607 60.8996 15.3607 60.5808 15.3607H58.8274V22.2407Z" fill="#A6A6A6"/>
<path d="M66.9568 19.84C66.7974 17.92 68.0726 16.32 69.9854 16.16C71.8982 16 73.4922 17.28 73.6517 19.2C73.6517 19.36 73.6517 19.68 73.6517 19.84C73.8111 21.76 72.5358 23.36 70.623 23.52C68.7102 23.68 67.1162 22.4 66.9568 20.48C66.9568 20.32 66.9568 20.16 66.9568 19.84ZM72.217 19.84C72.217 18.24 71.5794 17.44 70.3042 17.44C69.029 17.44 68.3914 18.4 68.3914 19.84C68.3914 21.44 69.029 22.4 70.3042 22.4C71.5794 22.4 72.217 21.44 72.217 19.84Z" fill="#A6A6A6"/>
<path d="M82.7374 23.5203H81.3028L79.8682 18.2403H79.7088L78.2742 23.5203H76.8396L74.9268 16.3203H76.3614L77.6366 21.7603H77.796L79.2306 16.3203H80.6652L82.0998 21.7603H82.2592L83.5344 16.3203H84.9691L82.7374 23.5203Z" fill="#A6A6A6"/>
<path d="M86.4043 16.32H87.8389V17.44H87.9983C88.3171 16.64 89.2735 16.16 90.0705 16.16C91.3457 16 92.4616 16.96 92.621 18.4C92.621 18.56 92.621 18.72 92.621 18.88V23.52H91.1863V19.2C91.1863 18.08 90.7081 17.44 89.5923 17.44C88.6359 17.44 87.8389 18.08 87.8389 19.04C87.8389 19.2 87.8389 19.2 87.8389 19.36V23.52H86.4043V16.32Z" fill="#A6A6A6"/>
<path d="M94.6924 13.4404H96.127V23.5204H94.6924V13.4404Z" fill="#A6A6A6"/>
<path d="M98.0398 19.84C97.8804 17.92 99.1556 16.32 101.068 16.16C102.981 16 104.575 17.28 104.735 19.2C104.735 19.36 104.735 19.68 104.735 19.84C104.894 21.76 103.619 23.36 101.706 23.52C99.7932 23.68 98.1992 22.4 98.0398 20.48C98.0398 20.32 98.0398 20.16 98.0398 19.84ZM103.459 19.84C103.459 18.24 102.822 17.44 101.547 17.44C100.271 17.44 99.6338 18.4 99.6338 19.84C99.6338 21.44 100.271 22.4 101.547 22.4C102.662 22.4 103.459 21.44 103.459 19.84Z" fill="#A6A6A6"/>
<path d="M106.329 21.4402C106.329 20.1602 107.286 19.3602 109.039 19.3602L110.952 19.2002V18.5602C110.952 17.7602 110.474 17.4402 109.517 17.4402C108.72 17.4402 108.242 17.7602 108.083 18.2402H106.648C106.808 16.9602 107.923 16.1602 109.517 16.1602C111.271 16.1602 112.387 17.1202 112.387 18.5602V23.5202H110.952V22.5602H110.793C110.314 23.3602 109.517 23.6802 108.561 23.6802C107.445 23.8402 106.329 22.8802 106.17 21.7602C106.329 21.6002 106.329 21.6002 106.329 21.4402ZM110.952 20.8002V20.1602L109.199 20.3202C108.242 20.3202 107.764 20.8002 107.764 21.2802C107.764 21.9202 108.402 22.2402 109.039 22.2402C109.996 22.5602 110.793 21.9202 110.952 20.8002C110.952 20.9602 110.952 20.9602 110.952 20.8002Z" fill="#A6A6A6"/>
<path d="M114.14 19.8404C114.14 17.6004 115.255 16.1604 117.168 16.1604C118.125 16.1604 118.922 16.6404 119.4 17.4404H119.559V13.4404H120.994V23.5204H119.559V22.4004H119.4C118.922 23.2004 118.125 23.6804 117.168 23.6804C115.415 23.6804 114.14 22.2404 114.14 19.8404ZM115.734 19.8404C115.734 21.4404 116.531 22.2404 117.646 22.2404C118.762 22.2404 119.559 21.2804 119.559 19.8404C119.559 18.4004 118.762 17.4404 117.646 17.4404C116.371 17.4404 115.734 18.4004 115.734 19.8404Z" fill="#A6A6A6"/>
<path d="M126.732 19.84C126.573 17.92 127.848 16.32 129.761 16.16C131.674 16 133.268 17.28 133.427 19.2C133.427 19.36 133.427 19.68 133.427 19.84C133.586 21.76 132.311 23.36 130.398 23.52C128.486 23.68 126.892 22.4 126.732 20.48C126.732 20.32 126.732 20.16 126.732 19.84ZM132.152 19.84C132.152 18.24 131.514 17.44 130.239 17.44C128.964 17.44 128.326 18.4 128.326 19.84C128.326 21.44 128.964 22.4 130.239 22.4C131.355 22.4 132.152 21.44 132.152 19.84Z" fill="#A6A6A6"/>
<path d="M135.5 16.32H136.935V17.44H137.094C137.413 16.64 138.369 16.16 139.166 16.16C140.441 16 141.557 16.96 141.717 18.4C141.717 18.56 141.717 18.72 141.717 18.88V23.52H140.282V19.2C140.282 18.08 139.804 17.44 138.688 17.44C137.732 17.44 136.935 18.08 136.935 19.04C136.935 19.2 136.935 19.2 136.935 19.36V23.52H135.5V16.32Z" fill="#A6A6A6"/>
<path d="M149.527 14.5605V16.3205H151.121V17.6005H149.527V21.2805C149.527 22.0805 149.846 22.4005 150.484 22.4005C150.643 22.4005 150.802 22.4005 150.962 22.4005V23.5205C150.643 23.5205 150.484 23.5205 150.165 23.5205C148.571 23.5205 147.933 23.0405 147.933 21.6005V17.6005H146.817V16.4805H147.933V14.5605H149.527Z" fill="#A6A6A6"/>
<path d="M153.034 13.4404H154.469V17.4404H154.628C154.947 16.6404 155.903 16.0004 156.86 16.1604C158.135 16.1604 159.251 17.1204 159.41 18.4004C159.41 18.5604 159.41 18.7204 159.41 18.8804V23.5204H157.976V19.2004C157.976 18.0804 157.497 17.4404 156.382 17.4404C155.425 17.4404 154.628 18.0804 154.628 19.0404C154.628 19.2004 154.628 19.2004 154.628 19.3604V23.5204H153.194L153.034 13.4404Z" fill="#A6A6A6"/>
<path d="M167.539 21.6003C167.221 22.8803 165.786 23.8403 164.351 23.6803C162.598 23.6803 161.004 22.2403 161.004 20.4803C161.004 20.3203 161.004 20.1603 161.004 20.0003C160.685 18.2403 161.96 16.4803 163.873 16.3203C164.033 16.3203 164.192 16.3203 164.351 16.3203C166.424 16.3203 167.539 17.7603 167.539 20.0003V20.4803H162.439C162.279 21.6003 163.076 22.4003 164.192 22.5603H164.351C164.989 22.7203 165.786 22.2403 166.105 21.7603L167.539 21.6003ZM162.439 19.2003H166.105C166.105 18.2403 165.467 17.4403 164.511 17.2803H164.351C163.395 17.4403 162.439 18.2403 162.439 19.2003Z" fill="#A6A6A6"/>
</g>
<defs>
<clipPath id="clip0_3818_5656">
<rect width="190.804" height="64" fill="white" transform="translate(0.486328)"/>
</clipPath>
</defs>
</svg>
