<svg width="212" height="63" viewBox="0 0 212 63" fill="none" xmlns="http://www.w3.org/2000/svg">
<path d="M203.32 0.196289H7.82001C3.50114 0.196289 0 3.71106 0 8.04676V55.1496C0 59.4853 3.50114 63 7.82001 63H203.32C207.639 63 211.14 59.4853 211.14 55.1496V8.04676C211.14 3.71106 207.639 0.196289 203.32 0.196289Z" fill="#323232" fill-opacity="0.7"/>
<path d="M203.32 1.45236C205.062 1.45236 206.733 2.14713 207.965 3.38382C209.197 4.6205 209.889 6.29781 209.889 8.04676V55.1496C209.889 56.8985 209.197 58.5758 207.965 59.8125C206.733 61.0492 205.062 61.7439 203.32 61.7439H7.82001C6.07785 61.7439 4.40705 61.0492 3.17516 59.8125C1.94327 58.5758 1.2512 56.8985 1.2512 55.1496V8.04676C1.2512 6.29781 1.94327 4.6205 3.17516 3.38382C4.40705 2.14713 6.07785 1.45236 7.82001 1.45236H203.32ZM203.32 0.196289H7.82001C5.74601 0.196289 3.75696 1.02339 2.29043 2.49564C0.823891 3.96789 0 5.96468 0 8.04676V55.1496C0 57.2316 0.823891 59.2284 2.29043 60.7007C3.75696 62.1729 5.74601 63 7.82001 63H203.32C205.394 63 207.383 62.1729 208.85 60.7007C210.316 59.2284 211.14 57.2316 211.14 55.1496V8.04676C211.14 5.96468 210.316 3.96789 208.85 2.49564C207.383 1.02339 205.394 0.196289 203.32 0.196289Z" fill="#A6A6A6"/>
<path d="M106.571 34.3457C105.258 34.3519 103.976 34.7485 102.887 35.4855C101.798 36.2225 100.951 37.2668 100.453 38.4867C99.9545 39.7065 99.8273 41.0472 100.087 42.3395C100.347 43.6319 100.983 44.8179 101.914 45.748C102.845 46.6781 104.029 47.3105 105.317 47.5655C106.606 47.8204 107.941 47.6864 109.154 47.1805C110.366 46.6745 111.403 45.8192 112.132 44.7226C112.861 43.6259 113.25 42.337 113.25 41.0186C113.263 40.1361 113.098 39.26 112.767 38.4426C112.435 37.6252 111.943 36.883 111.32 36.2604C110.697 35.6378 109.956 35.1474 109.14 34.8185C108.324 34.4895 107.45 34.3287 106.571 34.3457ZM106.571 45.0694C105.764 45.1261 104.958 44.9376 104.258 44.5283C103.559 44.1191 102.998 43.508 102.649 42.7746C102.3 42.0412 102.179 41.2194 102.301 40.4159C102.424 39.6124 102.784 38.8645 103.336 38.2694C103.887 37.6743 104.604 37.2595 105.393 37.0789C106.183 36.8983 107.008 36.9603 107.762 37.2568C108.516 37.5533 109.163 38.0706 109.621 38.7415C110.078 39.4124 110.323 40.2058 110.325 41.0186C110.35 41.5336 110.272 42.0485 110.096 42.5328C109.92 43.0172 109.649 43.4612 109.299 43.8387C108.949 44.2163 108.528 44.5197 108.059 44.731C107.591 44.9424 107.085 45.0575 106.571 45.0694ZM92.0106 34.3457C90.6967 34.3488 89.4131 34.7428 88.322 35.4779C87.231 36.213 86.3815 37.2562 85.8808 38.4758C85.3801 39.6954 85.2507 41.0366 85.5089 42.33C85.7671 43.6234 86.4014 44.8109 87.3317 45.7425C88.2619 46.6742 89.4463 47.3082 90.7352 47.5644C92.0242 47.8206 93.3599 47.6875 94.5736 47.182C95.7872 46.6765 96.8244 45.8212 97.5541 44.7242C98.2838 43.6272 98.6733 42.3377 98.6733 41.0186C98.686 40.1361 98.5218 39.26 98.1903 38.4426C97.8588 37.6252 97.3668 36.883 96.7437 36.2604C96.1206 35.6378 95.379 35.1474 94.5632 34.8185C93.7474 34.4895 92.874 34.3287 91.995 34.3457H92.0106ZM92.0106 45.0694C91.2026 45.1293 90.3952 44.9436 89.6938 44.5365C88.9923 44.1293 88.4292 43.5196 88.0777 42.7866C87.7263 42.0537 87.6027 41.2316 87.7232 40.4272C87.8437 39.6228 88.2027 38.8734 88.7533 38.2767C89.304 37.68 90.0208 37.2635 90.8105 37.0815C91.6003 36.8994 92.4263 36.9603 93.1811 37.2561C93.9358 37.552 94.5844 38.0691 95.0424 38.7402C95.5003 39.4112 95.7464 40.2051 95.7486 41.0186C95.7738 41.5336 95.696 42.0485 95.5198 42.5328C95.3437 43.0172 95.0727 43.4612 94.7228 43.8387C94.373 44.2163 93.9514 44.5197 93.4829 44.731C93.0144 44.9424 92.5085 45.0575 91.995 45.0694H92.0106ZM74.6659 36.4025V39.2287H81.4223C81.3164 40.5598 80.7652 41.8159 79.8583 42.7928C79.1824 43.484 78.3698 44.0255 77.4728 44.3824C76.5758 44.7394 75.6143 44.9039 74.6502 44.8653C72.6592 44.8653 70.7497 44.0713 69.3418 42.6579C67.9339 41.2446 67.143 39.3276 67.143 37.3289C67.143 35.3301 67.9339 33.4131 69.3418 31.9998C70.7497 30.5864 72.6592 29.7924 74.6502 29.7924C76.5549 29.7612 78.3941 30.4896 79.7645 31.8178L81.7508 29.8238C80.8256 28.8834 79.7219 28.1389 78.5049 27.6346C77.2879 27.1302 75.9824 26.8763 74.6659 26.8877C73.2755 26.8334 71.8884 27.0614 70.5879 27.5581C69.2874 28.0548 68.1001 28.8099 67.0973 29.7783C66.0944 30.7466 65.2966 31.9083 64.7516 33.1935C64.2067 34.4788 63.9258 35.8613 63.9258 37.2582C63.9258 38.6551 64.2067 40.0376 64.7516 41.3229C65.2966 42.6081 66.0944 43.7698 67.0973 44.7381C68.1001 45.7065 69.2874 46.4616 70.5879 46.9583C71.8884 47.455 73.2755 47.683 74.6659 47.6287C76.0046 47.6894 77.3407 47.4616 78.5844 46.9606C79.828 46.4595 80.9504 45.6969 81.8759 44.724C83.5145 42.9167 84.3893 40.5409 84.3157 38.0982C84.3208 37.5031 84.2684 36.9089 84.1593 36.324L74.6659 36.4025ZM145.531 38.6006C145.123 37.396 144.36 36.3441 143.344 35.5842C142.327 34.8244 141.104 34.3925 139.838 34.3457C138.982 34.344 138.136 34.5185 137.35 34.8584C136.564 35.1982 135.856 35.6963 135.27 36.3217C134.684 36.9471 134.231 37.6866 133.941 38.4945C133.651 39.3023 133.528 40.1614 133.582 41.0186C133.563 41.8961 133.72 42.7685 134.045 43.5836C134.369 44.3987 134.854 45.1399 135.47 45.7627C136.086 46.3856 136.82 46.8774 137.63 47.2088C138.44 47.5402 139.308 47.7043 140.182 47.6915C141.276 47.6974 142.354 47.4308 143.321 46.9157C144.287 46.4006 145.111 45.6529 145.718 44.7397L143.451 43.1696C143.112 43.7361 142.633 44.2046 142.06 44.5294C141.487 44.8541 140.84 45.024 140.182 45.0223C139.504 45.0482 138.835 44.8689 138.26 44.5077C137.686 44.1465 137.233 43.6201 136.96 42.9969L145.859 39.3072L145.531 38.6006ZM136.46 40.8302C136.428 40.3445 136.493 39.8574 136.651 39.3974C136.809 38.9373 137.057 38.5136 137.381 38.1509C137.704 37.7883 138.096 37.4941 138.534 37.2856C138.972 37.077 139.447 36.9583 139.932 36.9363C140.436 36.903 140.939 37.0191 141.379 37.2703C141.818 37.5215 142.174 37.8968 142.403 38.3494L136.46 40.8302ZM129.234 47.2989H132.159V27.6728H129.234V47.2989ZM124.448 35.8373H124.339C123.898 35.3425 123.358 34.9469 122.754 34.6763C122.15 34.4057 121.496 34.2663 120.835 34.2672C119.126 34.3504 117.514 35.0906 116.334 36.3343C115.154 37.5781 114.495 39.2301 114.495 40.9479C114.495 42.6658 115.154 44.3177 116.334 45.5615C117.514 46.8053 119.126 47.5455 120.835 47.6287C121.498 47.6399 122.155 47.5051 122.76 47.2338C123.366 46.9625 123.904 46.5614 124.339 46.0586H124.432V47.0163C124.432 49.5756 123.072 50.9416 120.882 50.9416C120.153 50.9244 119.445 50.6898 118.849 50.2676C118.253 49.8454 117.796 49.2547 117.535 48.5707L114.986 49.6384C115.466 50.8102 116.283 51.8115 117.334 52.5136C118.384 53.2158 119.62 53.5869 120.882 53.5793C124.307 53.5793 127.138 51.5539 127.138 46.6238V34.7382H124.448V35.8373ZM121.101 45.0694C120.092 44.9802 119.153 44.5148 118.469 43.7649C117.785 43.0151 117.406 42.0353 117.406 41.0186C117.406 40.0019 117.785 39.022 118.469 38.2722C119.153 37.5224 120.092 37.057 121.101 36.9677C121.601 36.9935 122.091 37.1195 122.542 37.3383C122.993 37.5572 123.396 37.8644 123.727 38.2419C124.058 38.6194 124.31 39.0595 124.469 39.5364C124.627 40.0133 124.69 40.5172 124.651 41.0186C124.694 41.5221 124.635 42.0291 124.476 42.5088C124.318 42.9886 124.065 43.4312 123.732 43.8099C123.398 44.1885 122.992 44.4954 122.537 44.7119C122.082 44.9284 121.588 45.05 121.085 45.0694H121.101ZM159.231 27.6728H152.24V47.2989H155.165V39.8567H159.247C160.081 39.9168 160.918 39.8039 161.706 39.525C162.494 39.2461 163.216 38.8071 163.828 38.2356C164.44 37.664 164.928 36.972 165.261 36.2028C165.595 35.4336 165.767 34.6037 165.767 33.7647C165.767 32.9258 165.595 32.0959 165.261 31.3267C164.928 30.5574 164.44 29.8655 163.828 29.2939C163.216 28.7223 162.494 28.2834 161.706 28.0045C160.918 27.7256 160.081 27.6127 159.247 27.6728H159.231ZM159.231 37.0933H155.149V30.4047H159.294C160.184 30.4047 161.037 30.7596 161.666 31.3912C162.295 32.0228 162.649 32.8794 162.649 33.7726C162.649 34.6658 162.295 35.5224 161.666 36.154C161.037 36.7856 160.184 37.1404 159.294 37.1404L159.231 37.0933ZM177.264 34.2672C176.2 34.2033 175.139 34.4531 174.214 34.9858C173.289 35.5186 172.539 36.3111 172.056 37.2661L174.652 38.3494C174.908 37.8758 175.296 37.4871 175.768 37.2306C176.24 36.9742 176.776 36.861 177.311 36.9049C177.683 36.8614 178.059 36.8925 178.418 36.9965C178.777 37.1005 179.112 37.2752 179.403 37.5105C179.694 37.7458 179.936 38.037 180.114 38.367C180.292 38.6971 180.402 39.0594 180.439 39.4328V39.6369C179.5 39.1376 178.452 38.8787 177.389 38.8832C174.59 38.8832 171.759 40.4533 171.759 43.2952C171.787 43.9012 171.935 44.4954 172.195 45.0428C172.456 45.5902 172.823 46.0796 173.275 46.4822C173.727 46.8847 174.255 47.1922 174.827 47.3864C175.399 47.5806 176.005 47.6577 176.607 47.613C177.344 47.6661 178.081 47.5191 178.742 47.1876C179.402 46.8561 179.961 46.3522 180.361 45.7289H180.455V47.2989H183.27V39.7468C183.27 36.3083 180.674 34.3143 177.343 34.3143L177.264 34.2672ZM176.905 45.0223C175.951 45.0223 174.621 44.5356 174.621 43.358C174.621 41.7879 176.279 41.2698 177.749 41.2698C178.678 41.2468 179.596 41.4745 180.408 41.9292C180.31 42.7793 179.91 43.5652 179.28 44.1423C178.651 44.7193 177.835 45.0486 176.983 45.0694L176.905 45.0223ZM193.53 34.7382L190.183 43.2481H190.089L186.617 34.7382H183.489L188.697 46.6395L185.726 53.2496H188.775L196.783 34.7382H193.53ZM167.239 47.2989H170.164V27.6728H167.239V47.2989Z" fill="#A6A6A6"/>
<path d="M16.3276 12.0347C15.8178 12.6488 15.5605 13.4349 15.6081 14.2328V48.9633C15.5605 49.7612 15.8178 50.5474 16.3276 51.1614L16.4371 51.2713L35.815 31.8336V31.3783L16.4371 11.9248L16.3276 12.0347Z" fill="#A6A6A6"/>
<path d="M42.2278 38.3189L35.8154 31.8344V31.3791L42.2278 24.8789L42.3686 24.9574L50.0478 29.338C52.2374 30.5783 52.2374 32.6195 50.0478 33.8755L42.3999 38.2404L42.2278 38.3189Z" fill="#A6A6A6"/>
<path d="M42.4157 38.2244L35.8156 31.5986L16.3281 51.162C16.7744 51.5559 17.3438 51.7808 17.9378 51.798C18.5318 51.8152 19.1131 51.6236 19.5812 51.2562L42.4313 38.2244" fill="#A6A6A6"/>
<path d="M42.4157 24.9721L19.5656 11.9404C19.0974 11.573 18.5161 11.3813 17.9221 11.3985C17.3282 11.4157 16.7588 11.6407 16.3125 12.0346L35.8156 31.5979L42.4157 24.9721Z" fill="#A6A6A6"/>
<path opacity="0.2" d="M42.228 38.082L19.5656 51.0353C19.1141 51.3742 18.5654 51.5574 18.0016 51.5574C17.4378 51.5574 16.8891 51.3742 16.4376 51.0353L16.3281 51.1452L16.4376 51.2551C16.8881 51.5965 17.4372 51.7811 18.0016 51.7811C18.566 51.7811 19.1151 51.5965 19.5656 51.2551L42.4157 38.2233L42.228 38.082Z" fill="black" fill-opacity="0.7"/>
<path opacity="0.12" d="M16.3276 50.9422C15.8178 50.3281 15.5605 49.542 15.6081 48.744V48.9796C15.5605 49.7775 15.8178 50.5636 16.3276 51.1777L16.4371 51.0678L16.3276 50.9422ZM50.0475 33.6398L42.2274 38.0831L42.3682 38.2244L50.0475 33.8596C50.4832 33.6541 50.8572 33.3369 51.1318 32.9399C51.4064 32.5429 51.5719 32.0803 51.6115 31.5986C51.5235 32.0362 51.3368 32.4478 51.0657 32.8016C50.7945 33.1554 50.4462 33.4422 50.0475 33.6398Z" fill="black" fill-opacity="0.7"/>
<path opacity="0.25" d="M19.5653 12.1601L50.0477 29.5568C50.4465 29.7544 50.7948 30.0411 51.0659 30.3949C51.3371 30.7488 51.5238 31.1603 51.6117 31.5979C51.5721 31.1163 51.4067 30.6536 51.1321 30.2566C50.8575 29.8597 50.4835 29.5425 50.0477 29.337L19.5653 11.9403C17.3757 10.7 15.5928 11.7362 15.5928 14.2484V14.4839C15.6397 11.956 17.3914 10.9198 19.5653 12.1601Z" fill="#A6A6A6"/>
<path d="M65.8605 22.6018H64.7031V19.4616H65.6884C66.1377 18.9836 66.477 18.4125 66.6824 17.7885C66.8878 17.1646 66.9542 16.5029 66.8771 15.8504V11.1872H73.1331V19.4459H74.181V22.5861H73.0236V20.6078H65.8605V22.6018ZM68.0344 15.8975C68.1074 17.164 67.7966 18.423 67.143 19.5087H71.835V12.3491H68.0344V15.8975ZM83.5337 19.3831C82.6194 20.2958 81.3823 20.8082 80.0929 20.8082C78.8034 20.8082 77.5664 20.2958 76.6521 19.3831C75.7634 18.4387 75.2683 17.1888 75.2683 15.8896C75.2683 14.5905 75.7634 13.3405 76.6521 12.3962C77.1028 11.9404 77.6388 11.5787 78.2293 11.3319C78.8199 11.0851 79.4532 10.958 80.0929 10.958C80.7326 10.958 81.3659 11.0851 81.9565 11.3319C82.547 11.5787 83.083 11.9404 83.5337 12.3962C84.4259 13.3387 84.9234 14.5893 84.9234 15.8896C84.9234 17.1899 84.4259 18.4405 83.5337 19.3831ZM77.5436 18.598C78.2207 19.2749 79.1373 19.655 80.0929 19.655C81.0485 19.655 81.9651 19.2749 82.6422 18.598C83.3104 17.8585 83.6806 16.8959 83.6806 15.8975C83.6806 14.8991 83.3104 13.9364 82.6422 13.1969C81.9651 12.52 81.0485 12.14 80.0929 12.14C79.1373 12.14 78.2207 12.52 77.5436 13.1969C76.8754 13.9364 76.5052 14.8991 76.5052 15.8975C76.5052 16.8959 76.8754 17.8585 77.5436 18.598ZM90.994 20.8119C90.3483 20.8247 89.7067 20.7063 89.1079 20.4637C88.509 20.2211 87.9653 19.8593 87.5094 19.4002C87.0535 18.941 86.6948 18.394 86.4551 17.792C86.2153 17.1901 86.0994 16.5456 86.1143 15.8975C86.0994 15.2493 86.2153 14.6049 86.4551 14.0029C86.6948 13.401 87.0535 12.8539 87.5094 12.3948C87.9653 11.9356 88.509 11.5738 89.1079 11.3312C89.7067 11.0886 90.3483 10.9702 90.994 10.9831C91.6484 10.9668 92.298 11.0996 92.8939 11.3716C93.4899 11.6435 94.0167 12.0475 94.4348 12.5532L93.5902 13.3696C93.2813 12.9759 92.883 12.6622 92.4286 12.4546C91.9743 12.247 91.477 12.1516 90.9783 12.1763C90.4983 12.1638 90.0207 12.2492 89.5744 12.4273C89.1282 12.6054 88.7225 12.8726 88.3821 13.2126C87.704 13.9565 87.3279 14.9283 87.3279 15.9367C87.3279 16.9451 87.704 17.9169 88.3821 18.6608C88.7225 19.0009 89.1282 19.268 89.5744 19.4461C90.0207 19.6242 90.4983 19.7096 90.9783 19.6971C91.5288 19.6922 92.0713 19.5642 92.5664 19.3225C93.0615 19.0808 93.4967 18.7314 93.8405 18.2997L94.685 19.1476C94.2594 19.6659 93.7254 20.084 93.121 20.3722C92.4534 20.6758 91.7267 20.826 90.994 20.8119ZM99.596 20.6078H98.3917V12.3491H95.7642V11.1872H102.208V12.3491H99.596V20.6078ZM110.497 11.1872L106.947 19.1319C106.805 19.6018 106.521 20.0159 106.134 20.3168C105.747 20.6178 105.277 20.7908 104.788 20.8119C104.465 20.8077 104.146 20.7383 103.85 20.6078L104.163 19.493C104.353 19.6041 104.569 19.6636 104.788 19.6657C105.018 19.6831 105.248 19.6282 105.445 19.5087C105.634 19.3486 105.779 19.1434 105.868 18.9121L106.212 18.1584L103.084 11.2029H104.507L106.822 16.604L109.074 11.1872H110.497ZM111.858 20.6078V11.1872H118.646V20.6078H117.441V12.3491H113.062V20.6078H111.858ZM120.788 20.6078V11.1872H121.992V15.2223H126.684V11.1872H127.889V20.6078H126.684V16.3528H121.992V20.6078H120.788ZM137.726 19.3831C136.812 20.2958 135.575 20.8082 134.286 20.8082C132.996 20.8082 131.759 20.2958 130.845 19.3831C129.956 18.4387 129.461 17.1888 129.461 15.8896C129.461 14.5905 129.956 13.3405 130.845 12.3962C131.295 11.9404 131.831 11.5787 132.422 11.3319C133.013 11.0851 133.646 10.958 134.286 10.958C134.925 10.958 135.559 11.0851 136.149 11.3319C136.74 11.5787 137.276 11.9404 137.726 12.3962C138.619 13.3387 139.116 14.5893 139.116 15.8896C139.116 17.1899 138.619 18.4405 137.726 19.3831ZM131.736 18.598C132.413 19.2749 133.33 19.655 134.286 19.655C135.241 19.655 136.158 19.2749 136.835 18.598C137.503 17.8585 137.873 16.8959 137.873 15.8975C137.873 14.8991 137.503 13.9364 136.835 13.1969C136.158 12.52 135.241 12.14 134.286 12.14C133.33 12.14 132.413 12.52 131.736 13.1969C131.068 13.9364 130.698 14.8991 130.698 15.8975C130.698 16.8959 131.068 17.8585 131.736 18.598ZM144.029 20.6078V11.1872H147.423C148.128 11.1738 148.811 11.4323 149.331 11.9094C149.593 12.1371 149.801 12.4197 149.941 12.7371C150.082 13.0546 150.151 13.3991 150.145 13.7464C150.152 14.165 150.032 14.5758 149.8 14.924C149.571 15.2623 149.251 15.5289 148.878 15.6934C149.331 15.8441 149.729 16.1286 150.019 16.5098C150.32 16.8945 150.48 17.3711 150.473 17.8601C150.481 18.222 150.409 18.5813 150.263 18.9124C150.117 19.2434 149.901 19.5382 149.628 19.7756C149.084 20.2799 148.367 20.5553 147.626 20.5449L144.029 20.6078ZM145.234 15.2223H147.423C147.628 15.2309 147.832 15.1946 148.021 15.116C148.21 15.0373 148.379 14.9182 148.518 14.767C148.656 14.641 148.768 14.4882 148.847 14.3178C148.925 14.1475 148.968 13.963 148.974 13.7755C148.98 13.5879 148.948 13.4011 148.881 13.2262C148.813 13.0512 148.711 12.8918 148.581 12.7573C148.45 12.6089 148.288 12.4911 148.107 12.4125C147.926 12.3338 147.73 12.296 147.533 12.302H145.296L145.234 15.2223ZM145.234 19.4459H147.658C147.87 19.453 148.08 19.4131 148.275 19.3289C148.47 19.2448 148.643 19.1185 148.784 18.9592C149.06 18.672 149.216 18.2903 149.222 17.8915C149.222 17.4751 149.057 17.0757 148.764 16.7813C148.47 16.4868 148.073 16.3214 147.658 16.3214H145.28L145.234 19.4459Z" fill="#A6A6A6" stroke="#A6A6A6" stroke-width="0.2" stroke-miterlimit="10"/>
</svg>
