<svg width="1920" height="7562" viewBox="0 0 1920 7562" fill="none" xmlns="http://www.w3.org/2000/svg">
<g opacity="0.2">
<path fill-rule="evenodd" clip-rule="evenodd" d="M1582.75 0C1587.96 7.3794 1592.91 14.7659 1598.21 22.1453C1882.63 417.737 2301.75 693.194 2810.11 818.729C2975.92 859.625 3146.06 888.303 3311 910.626V928.78C3144.76 906.449 2973.15 877.522 2805.86 836.27C2293.22 709.703 1870.63 431.805 1583.69 32.6629C1575.88 21.8109 1568.4 10.9446 1560.84 0H1582.75Z" fill="#091F46"/>
<path fill-rule="evenodd" clip-rule="evenodd" d="M3311 1327.54C3272.49 1316.67 3234.07 1305.95 3196.16 1295.42C2792 1182.74 2374.1 1066.24 2010.45 840.969C1666.36 627.722 1404.69 335.938 1152.13 0H1174.65C1423.54 329.839 1681.92 616.144 2019.83 825.561C2381.31 1049.52 2798.01 1165.67 3200.94 1278.01C3237.18 1288.1 3274.06 1298.39 3311 1308.75V1327.54Z" fill="#091F46"/>
<path fill-rule="evenodd" clip-rule="evenodd" d="M3311 1915.24C3298.81 1900.26 3285.76 1885.55 3271.47 1871.27C3101.34 1701.52 2879.39 1598.72 2664.77 1499.31C2635.08 1485.45 2605.3 1471.71 2575.79 1457.78C2204.42 1282.79 1723.1 1032.53 1293.58 647.751C1219.66 581.502 1147.12 507.514 1070.43 429.162C914.651 270.291 755.483 107.954 574.381 0H608.954C781.354 108.646 933.803 264.108 1083.13 416.54C1159.66 494.628 1232.03 568.366 1305.51 634.259C1733.37 1017.55 2213.21 1266.95 2583.44 1441.42C2612.88 1455.34 2642.57 1469.09 2672.35 1482.85C2888.37 1582.96 3111.7 1686.46 3284.1 1858.47C3293.58 1867.89 3302.46 1877.55 3311 1887.37V1915.24Z" fill="#091F46"/>
<path fill-rule="evenodd" clip-rule="evenodd" d="M-633.264 522.643C-567.22 326.068 -439.387 128.531 -265.191 0H-234.033C-415.635 125.394 -548.686 327.366 -616.292 528.382C-737.16 887.705 -719.674 1305.83 -562.957 1806.72C-417.025 2272.8 -187.742 2767.25 100.28 3236.55C353.928 3649.91 675.36 3971.36 1079.92 4326.84C1097.92 4342.68 1116.53 4359.22 1135.85 4376.28C1393.86 4604.97 1747.24 4918.23 2091.55 4918.23H2091.64C2146.12 4918.23 2199.19 4910.06 2249.32 4894.03C2592.16 4784.22 2789.69 4437.97 2952.14 4080.06C3106.77 3739.36 3215.62 3378.84 3311 3019.78V3089.06C3219.55 3427.39 3114.35 3766.07 2968.41 4087.62C2804.3 4449.19 2604.27 4799.28 2254.72 4911.27C2202.85 4927.81 2148.03 4936.26 2091.64 4936.26C2091.55 4936.26 2091.55 4936.26 2091.55 4936.26C1740.44 4936.26 1384.12 4620.45 1124.02 4389.84C1104.7 4372.78 1086.08 4356.26 1068.17 4340.51C662.315 3983.89 339.828 3661.3 85.0464 3246.05C-203.759 2775.51 -433.741 2279.68 -580.015 1812.12C-738.029 1307.48 -755.437 885.602 -633.264 522.643Z" fill="#091F46"/>
<path fill-rule="evenodd" clip-rule="evenodd" d="M194.635 484.419C400.873 484.419 646.098 595.063 923.488 813.23C1336.76 1138.29 1776.75 1419.97 2190.63 1675.96C2215.51 1691.36 2240.74 1706.76 2266.03 1722.16C2429.23 1821.41 2597.89 1924.14 2724.37 2067.41C2901.82 2268.52 2946.1 2529.31 2951.93 2712.68C2953.49 2763.37 2953.06 2818.8 2950.44 2882.11C2876.16 3353.67 2760.37 3834.71 2420 4151.5C2297.62 4265.29 2153.99 4323.05 1993.16 4323.05H1993.08C1696.71 4323.05 1392.27 4130.98 1188.96 3986.49C507.605 3502.34 -13.5347 2720.5 -278.405 1785.22C-371.306 1457.11 -465.76 986.155 -214.557 685.455C-103.029 552.094 34.5867 484.419 194.635 484.419ZM1993.07 4341.05H1993.16C2158.7 4341.05 2306.4 4281.74 2432.1 4164.72C2776.57 3844.18 2893.38 3359.68 2968.27 2883.86C2970.98 2819.05 2971.41 2763.2 2969.84 2712.05C2963.84 2525.72 2918.78 2260.52 2737.77 2055.4C2609.55 1910.14 2439.58 1806.7 2275.26 1706.67C2250.03 1691.28 2224.89 1675.96 2200.01 1660.57C1786.56 1404.82 1347.11 1123.51 934.446 798.978C653.913 578.281 404.969 466.333 194.633 466.333C29.0977 466.333 -113.207 536.188 -228.291 673.79C-484.988 981.116 -389.657 1458.07 -295.631 1790.17C-29.7124 2729.37 493.865 3514.68 1178.62 4001.27C1383.82 4147.16 1691.67 4341.05 1993.07 4341.05Z" fill="#091F46"/>
<path opacity="0.8" fill-rule="evenodd" clip-rule="evenodd" d="M2517.34 3060.8C2482.88 3273.12 2382.52 3644.82 2096.32 3768.17C2017.42 3802.18 1932.62 3819.4 1844.15 3819.4C1604.42 3819.4 1331.11 3695.53 1031.78 3451.11C547.006 3055.4 170.522 2372.9 72.5051 1712.32C41.7925 1505.48 40.4956 1238.17 208.632 1138.65C261.007 1107.69 321.449 1091.94 388.433 1091.94C617.211 1091.94 888.174 1272.87 1067.45 1392.56C1087.63 1406.05 1106.85 1418.84 1124.95 1430.77C1228.81 1498.96 1336.15 1565.14 1440.01 1629.07C1650.35 1758.61 1867.72 1892.55 2063.7 2048.7C2204.37 2160.74 2321.28 2294.78 2431.74 2470.32C2530.74 2627.78 2524.65 2824.79 2518.73 3015.3C2518.3 3030.51 2517.77 3045.74 2517.34 3060.8ZM1844.15 3891.68H1844.24C1942.35 3891.59 2036.73 3872.46 2124.59 3834.53C2443.32 3697.18 2552.13 3296.52 2588.58 3069.92L2589.01 3065.14C2589.45 3049.4 2589.88 3033.56 2590.4 3017.56C2596.4 2825.5 2603.1 2607.85 2492.36 2431.71C2377.46 2249.03 2255.42 2109.32 2108.24 1992.07C1908.88 1833.24 1689.58 1698.14 1477.51 1567.49C1374.08 1503.73 1267.08 1437.89 1164.18 1370.29C1146.17 1358.47 1127.13 1345.77 1107.12 1332.37C920.618 1207.89 638.874 1019.74 388.433 1019.74C308.502 1019.74 235.782 1038.8 172.268 1076.37C9.60498 1172.66 -47.7944 1390.21 1.51685 1722.94C102.078 2400.39 488.73 3100.81 986.64 3507.2C1299.01 3762.33 1587.53 3891.68 1844.15 3891.68Z" fill="#091F46"/>
<path fill-rule="evenodd" clip-rule="evenodd" d="M873.122 1907.09C1048.58 1907.09 1288.47 2030 1378.87 2076.28C1593.8 2186.39 2086.84 2495.12 2021.94 2982.23C1956.7 3220.4 1788.91 3270.61 1659.65 3270.61C1536.22 3270.69 1389.82 3223.62 1257.87 3141.51C1087.45 3035.49 941.139 2880.81 834.77 2694.13C779.951 2597.93 607.197 2265.57 684.356 2026.79C710.024 1947.37 773.516 1907.09 873.122 1907.09ZM1659.64 3288.68C1795.18 3288.68 1970.98 3236.15 2039.43 2985.81C2106.15 2486.07 1605.36 2172.05 1386.95 2060.19C1295.62 2013.39 1052.92 1889.08 873.12 1889.08C764.82 1889.08 695.578 1933.53 667.216 2021.22C587.798 2267.04 763.523 2605.32 819.191 2703.1C927.042 2892.38 1075.44 3049.3 1248.46 3156.91C1383.12 3240.67 1532.99 3288.68 1659.64 3288.68Z" fill="#091F46"/>
</g>
<g opacity="0.2">
<path fill-rule="evenodd" clip-rule="evenodd" d="M1694.42 4866C1880.7 5078.06 2130.6 5241.98 2416.23 5331.75C2608.15 5392.08 2806.33 5421.44 3006 5435.61V5453.7C2804.77 5439.53 2604.77 5409.9 2410.92 5348.97C2116.78 5256.48 1860.01 5086.32 1670.51 4866H1694.42Z" fill="#091F46"/>
<path fill-rule="evenodd" clip-rule="evenodd" d="M1277.75 4866C1282.96 4873.38 1287.91 4880.77 1293.21 4888.15C1577.63 5283.74 1996.75 5559.19 2505.11 5684.73C2670.92 5725.63 2841.06 5754.3 3006 5776.63V5794.78C2839.76 5772.45 2668.15 5743.52 2500.86 5702.27C1988.22 5575.7 1565.63 5297.81 1278.69 4898.66C1270.88 4887.81 1263.4 4876.94 1255.84 4866H1277.75Z" fill="#091F46"/>
<path fill-rule="evenodd" clip-rule="evenodd" d="M3006 6193.54C2967.49 6182.67 2929.07 6171.95 2891.16 6161.42C2487 6048.74 2069.1 5932.24 1705.45 5706.97C1361.36 5493.72 1099.69 5201.94 847.134 4866H869.653C1118.54 5195.84 1376.92 5482.14 1714.83 5691.56C2076.31 5915.52 2493.01 6031.67 2895.94 6144.01C2932.18 6154.1 2969.06 6164.39 3006 6174.75V6193.54Z" fill="#091F46"/>
<path fill-rule="evenodd" clip-rule="evenodd" d="M-1210.68 5298.2C-1175.46 5150.16 -1119.63 5004.3 -1047.64 4866H-1027.57C-1100.87 5005.42 -1157.63 5152.78 -1193.28 5302.46C-1299.8 5749.55 -1246.57 6226.41 -1020.79 6848.6C-820.551 7400.22 -592.574 7890.31 -343.115 8305.27C-138.18 8646.18 114.997 8922.16 383.06 9214.33C452.364 9289.96 524.09 9368.12 594.27 9446.88C667.114 9528.52 739.645 9612.85 809.803 9694.41C907.969 9808.59 1009.52 9926.51 1113.16 10039.1C1133.25 10060.7 1153.69 10083.5 1174.63 10106.8C1307.05 10254.1 1457.13 10420.9 1635.03 10484.1C1683.7 10501.4 1733.44 10510.2 1782.99 10510.2H1783.09C2136.8 10510.1 2426.16 10066.4 2534.14 9875.61C2728.82 9531.65 2872.45 9157.58 3006 8789V8841.48C2876.89 9195.7 2736.9 9553.76 2549.7 9884.58C2413.63 10125 2133.06 10528.2 1783.09 10528.2H1782.99C1731.45 10528.2 1679.63 10519.1 1629.11 10501.2C1446.86 10436.5 1295.23 10267.8 1161.42 10119C1140.45 10095.7 1120.03 10073 1100.03 10051.3C996.134 9938.62 894.578 9820.52 796.234 9706.33C726.161 9624.77 653.652 9540.53 580.95 9458.9C510.877 9380.3 439.151 9302.15 369.854 9226.61C101.178 8933.74 -152.618 8657.14 -358.415 8314.67C-608.472 7898.66 -836.968 7407.53 -1037.65 6854.78C-1264.67 6229.12 -1318.06 5749.04 -1210.68 5298.2Z" fill="#091F46"/>
<path fill-rule="evenodd" clip-rule="evenodd" d="M3006 6781.24C2993.81 6766.26 2980.76 6751.55 2966.47 6737.27C2796.34 6567.52 2574.39 6464.72 2359.77 6365.31C2330.08 6351.45 2300.3 6337.71 2270.79 6323.78C1899.42 6148.79 1418.1 5898.53 988.581 5513.75C914.664 5447.5 842.123 5373.51 765.432 5295.16C609.651 5136.29 450.483 4973.95 269.381 4866H303.954C476.354 4974.65 628.803 5130.11 778.128 5282.54C854.663 5360.63 927.025 5434.37 1000.51 5500.26C1428.37 5883.55 1908.21 6132.95 2278.44 6307.42C2307.88 6321.34 2337.57 6335.09 2367.35 6348.85C2583.37 6448.96 2806.7 6552.46 2979.1 6724.47C2988.58 6733.89 2997.46 6743.55 3006 6753.37V6781.24Z" fill="#091F46"/>
<path fill-rule="evenodd" clip-rule="evenodd" d="M-938.264 5388.64C-872.22 5192.07 -744.387 4994.53 -570.191 4866H-539.033C-720.635 4991.39 -853.686 5193.37 -921.292 5394.38C-1042.16 5753.71 -1024.67 6171.83 -867.957 6672.72C-722.025 7138.8 -492.742 7633.25 -204.72 8102.55C48.9282 8515.91 370.36 8837.36 774.916 9192.84C792.915 9208.68 811.534 9225.22 830.852 9242.28C1088.86 9470.97 1442.24 9784.23 1786.55 9784.23H1786.64C1841.12 9784.23 1894.19 9776.06 1944.32 9760.03C2287.16 9650.22 2484.69 9303.97 2647.14 8946.06C2801.77 8605.36 2910.62 8244.84 3006 7885.78V7955.06C2914.55 8293.39 2809.35 8632.07 2663.41 8953.62C2499.3 9315.19 2299.27 9665.28 1949.72 9777.27C1897.85 9793.81 1843.03 9802.26 1786.64 9802.26C1786.55 9802.26 1786.55 9802.26 1786.55 9802.26C1435.44 9802.26 1079.12 9486.45 819.019 9255.84C799.701 9238.78 781.082 9222.26 763.168 9206.51C357.315 8849.89 34.8284 8527.3 -219.954 8112.05C-508.759 7641.51 -738.741 7145.68 -885.015 6678.12C-1043.03 6173.48 -1060.44 5751.6 -938.264 5388.64Z" fill="#091F46"/>
<path fill-rule="evenodd" clip-rule="evenodd" d="M-110.365 5350.42C95.8733 5350.42 341.098 5461.06 618.488 5679.23C1031.76 6004.29 1471.75 6285.97 1885.63 6541.96C1910.51 6557.36 1935.74 6572.76 1961.03 6588.16C2124.23 6687.41 2292.89 6790.14 2419.37 6933.41C2596.82 7134.52 2641.1 7395.31 2646.93 7578.68C2648.49 7629.37 2648.06 7684.8 2645.44 7748.11C2571.16 8219.67 2455.37 8700.71 2115 9017.5C1992.62 9131.29 1848.99 9189.05 1688.16 9189.05H1688.08C1391.71 9189.05 1087.27 8996.98 883.965 8852.49C202.605 8368.34 -318.535 7586.5 -583.405 6651.22C-676.306 6323.11 -770.76 5852.16 -519.557 5551.46C-408.029 5418.09 -270.413 5350.42 -110.365 5350.42ZM1688.07 9207.05H1688.16C1853.7 9207.05 2001.4 9147.74 2127.1 9030.72C2471.57 8710.18 2588.38 8225.68 2663.27 7749.86C2665.98 7685.05 2666.41 7629.2 2664.84 7578.05C2658.84 7391.72 2613.78 7126.52 2432.77 6921.4C2304.55 6776.14 2134.58 6672.7 1970.26 6572.67C1945.03 6557.28 1919.89 6541.96 1895.01 6526.57C1481.56 6270.82 1042.11 5989.51 629.446 5664.98C348.913 5444.28 99.9688 5332.33 -110.367 5332.33C-275.902 5332.33 -418.207 5402.19 -533.291 5539.79C-789.988 5847.12 -694.657 6324.07 -600.631 6656.17C-334.712 7595.37 188.865 8380.68 873.616 8867.27C1078.82 9013.16 1386.67 9207.05 1688.07 9207.05Z" fill="#091F46"/>
<path opacity="0.8" fill-rule="evenodd" clip-rule="evenodd" d="M2212.34 7926.8C2177.88 8139.12 2077.52 8510.82 1791.32 8634.17C1712.42 8668.18 1627.62 8685.4 1539.15 8685.4C1299.42 8685.4 1026.11 8561.53 726.783 8317.11C242.006 7921.4 -134.478 7238.9 -232.495 6578.32C-263.208 6371.48 -264.504 6104.17 -96.3682 6004.65C-43.9927 5973.69 16.4495 5957.94 83.4331 5957.94C312.211 5957.94 583.174 6138.87 762.448 6258.56C782.629 6272.05 801.854 6284.84 819.954 6296.77C923.814 6364.96 1031.15 6431.14 1135.01 6495.07C1345.35 6624.61 1562.72 6758.55 1758.7 6914.7C1899.37 7026.74 2016.28 7160.78 2126.74 7336.32C2225.74 7493.78 2219.65 7690.79 2213.73 7881.3C2213.3 7896.51 2212.77 7911.74 2212.34 7926.8ZM1539.15 8757.68H1539.24C1637.35 8757.59 1731.73 8738.46 1819.59 8700.53C2138.32 8563.18 2247.13 8162.52 2283.58 7935.92L2284.01 7931.14C2284.45 7915.4 2284.88 7899.56 2285.4 7883.56C2291.4 7691.5 2298.1 7473.85 2187.36 7297.71C2072.46 7115.03 1950.42 6975.32 1803.24 6858.07C1603.88 6699.24 1384.58 6564.14 1172.51 6433.49C1069.08 6369.73 962.081 6303.89 859.182 6236.29C841.168 6224.47 822.128 6211.77 802.118 6198.37C615.618 6073.89 333.874 5885.74 83.4331 5885.74C3.50171 5885.74 -69.2183 5904.8 -132.732 5942.37C-295.395 6038.66 -352.794 6256.21 -303.483 6588.94C-202.922 7266.39 183.73 7966.81 681.64 8373.2C994.005 8628.33 1282.53 8757.68 1539.15 8757.68Z" fill="#091F46"/>
<path fill-rule="evenodd" clip-rule="evenodd" d="M568.122 6773.09C743.576 6773.09 983.471 6896 1073.87 6942.28C1288.8 7052.39 1781.84 7361.12 1716.94 7848.23C1651.7 8086.4 1483.91 8136.61 1354.65 8136.61C1231.22 8136.69 1084.82 8089.62 952.872 8007.51C782.448 7901.49 636.139 7746.81 529.77 7560.13C474.951 7463.93 302.197 7131.57 379.356 6892.79C405.024 6813.37 468.516 6773.09 568.122 6773.09ZM1354.64 8154.68C1490.18 8154.68 1665.98 8102.15 1734.43 7851.81C1801.15 7352.07 1300.36 7038.05 1081.95 6926.19C990.616 6879.39 747.921 6755.08 568.12 6755.08C459.82 6755.08 390.578 6799.53 362.216 6887.22C282.798 7133.04 458.523 7471.32 514.191 7569.1C622.042 7758.38 770.439 7915.3 943.456 8022.91C1078.12 8106.67 1227.99 8154.68 1354.64 8154.68Z" fill="#091F46"/>
</g>
</svg>
