<svg width="4575" height="10529" viewBox="0 0 4575 10529" fill="none" xmlns="http://www.w3.org/2000/svg">
<g opacity="0.2">
<path fill-rule="evenodd" clip-rule="evenodd" d="M3894.29 0C3936.67 23.4785 3980.89 44.4168 4026.74 62.5351C4203.74 132.439 4388.5 159.585 4575 167.564V185.955C4386.57 177.99 4199.72 150.4 4020.21 79.5412C3963.53 57.1175 3909.39 30.3885 3858.03 0H3894.29" fill="#091F46"/>
<path fill-rule="evenodd" clip-rule="evenodd" d="M3263.42 0C3449.7 212.061 3699.6 375.978 3985.23 465.75C4177.15 526.076 4375.33 555.444 4575 569.613V587.697C4373.77 573.529 4173.77 543.896 3979.92 482.966C3685.78 390.481 3429.01 220.32 3239.51 0H3263.42" fill="#091F46"/>
<path fill-rule="evenodd" clip-rule="evenodd" d="M2846.75 0C2851.96 7.3794 2856.91 14.7659 2862.21 22.1453C3146.63 417.737 3565.75 693.194 4074.11 818.729C4239.92 859.625 4410.06 888.303 4575 910.626V928.78C4408.76 906.449 4237.15 877.522 4069.86 836.27C3557.22 709.703 3134.63 431.805 2847.69 32.6629C2839.88 21.8109 2832.4 10.9446 2824.84 0H2846.75" fill="#091F46"/>
<path fill-rule="evenodd" clip-rule="evenodd" d="M4575 1327.54C4536.49 1316.67 4498.07 1305.95 4460.16 1295.42C4056 1182.74 3638.1 1066.24 3274.45 840.969C2930.36 627.722 2668.69 335.938 2416.13 0H2438.65C2687.54 329.839 2945.92 616.144 3283.83 825.561C3645.31 1049.52 4062.01 1165.67 4464.94 1278.01C4501.18 1288.1 4538.06 1298.39 4575 1308.75V1327.54" fill="#091F46"/>
<path fill-rule="evenodd" clip-rule="evenodd" d="M4575 1915.24C4562.81 1900.26 4549.76 1885.55 4535.47 1871.27C4365.34 1701.52 4143.39 1598.72 3928.77 1499.31C3899.08 1485.45 3869.3 1471.71 3839.79 1457.78C3468.42 1282.79 2987.1 1032.53 2557.58 647.751C2483.66 581.502 2411.12 507.514 2334.43 429.162C2178.65 270.291 2019.48 107.954 1838.38 0H1872.95C2045.35 108.646 2197.8 264.108 2347.13 416.54C2423.66 494.628 2496.03 568.366 2569.51 634.259C2997.37 1017.55 3477.21 1266.95 3847.44 1441.42C3876.88 1455.34 3906.57 1469.09 3936.35 1482.85C4152.37 1582.96 4375.7 1686.46 4548.1 1858.47C4557.58 1867.89 4566.46 1877.55 4575 1887.37V1915.24" fill="#091F46"/>
<path fill-rule="evenodd" clip-rule="evenodd" d="M630.736 522.643C696.78 326.068 824.613 128.531 998.809 0H1029.97C848.365 125.394 715.314 327.366 647.708 528.382C526.84 887.705 544.326 1305.83 701.043 1806.72C846.975 2272.8 1076.26 2767.25 1364.28 3236.55C1617.93 3649.91 1939.36 3971.36 2343.92 4326.84C2361.92 4342.68 2380.53 4359.22 2399.85 4376.28C2657.86 4604.97 3011.24 4918.23 3355.55 4918.23H3355.64C3410.12 4918.23 3463.19 4910.06 3513.32 4894.03C3856.16 4784.22 4053.69 4437.97 4216.14 4080.06C4370.77 3739.36 4479.62 3378.84 4575 3019.78V3089.06C4483.55 3427.39 4378.35 3766.07 4232.41 4087.62C4068.3 4449.18 3868.27 4799.28 3518.72 4911.27C3466.85 4927.81 3412.03 4936.26 3355.64 4936.26C3355.55 4936.26 3355.55 4936.26 3355.55 4936.26C3004.44 4936.26 2648.12 4620.45 2388.02 4389.84C2368.7 4372.78 2350.08 4356.26 2332.17 4340.51C1926.32 3983.89 1603.83 3661.3 1349.05 3246.05C1060.24 2775.52 830.259 2279.68 683.985 1812.12C525.971 1307.48 508.563 885.602 630.736 522.643" fill="#091F46"/>
<path fill-rule="evenodd" clip-rule="evenodd" d="M1458.64 484.419C1664.87 484.419 1910.1 595.063 2187.49 813.231C2600.76 1138.29 3040.75 1419.97 3454.63 1675.96C3479.51 1691.36 3504.74 1706.76 3530.03 1722.16C3693.23 1821.41 3861.89 1924.14 3988.37 2067.41C4165.82 2268.52 4210.1 2529.31 4215.93 2712.68C4217.49 2763.37 4217.06 2818.8 4214.44 2882.11C4140.16 3353.67 4024.37 3834.71 3684 4151.5C3561.62 4265.29 3417.99 4323.05 3257.16 4323.05H3257.08C2960.71 4323.05 2656.27 4130.98 2452.97 3986.49C1771.61 3502.34 1250.47 2720.5 985.596 1785.22C892.695 1457.11 798.241 986.155 1049.44 685.456C1160.97 552.094 1298.59 484.419 1458.64 484.419ZM3257.07 4341.05H3257.16C3422.7 4341.05 3570.4 4281.74 3696.1 4164.72C4040.57 3844.18 4157.38 3359.68 4232.27 2883.86C4234.98 2819.05 4235.41 2763.2 4233.84 2712.05C4227.84 2525.72 4182.78 2260.52 4001.77 2055.4C3873.55 1910.14 3703.58 1806.7 3539.26 1706.67C3514.04 1691.28 3488.89 1675.96 3464.01 1660.57C3050.57 1404.82 2611.11 1123.51 2198.45 798.978C1917.91 578.281 1668.97 466.333 1458.63 466.333C1293.1 466.333 1150.79 536.188 1035.71 673.79C779.013 981.117 874.344 1458.07 968.37 1790.17C1234.29 2729.37 1757.87 3514.68 2442.62 4001.27C2647.82 4147.16 2955.67 4341.05 3257.07 4341.05V4341.05Z" fill="#091F46"/>
<path opacity="0.8" fill-rule="evenodd" clip-rule="evenodd" d="M3781.34 3060.8C3746.89 3273.12 3646.52 3644.82 3360.33 3768.17C3281.42 3802.18 3196.62 3819.4 3108.15 3819.4C2868.42 3819.4 2595.11 3695.53 2295.78 3451.11C1811.01 3055.4 1434.52 2372.9 1336.51 1712.32C1305.79 1505.48 1304.5 1238.17 1472.63 1138.65C1525.01 1107.69 1585.45 1091.94 1652.43 1091.94C1881.21 1091.94 2152.17 1272.87 2331.45 1392.56C2351.63 1406.05 2370.86 1418.84 2388.96 1430.77C2492.82 1498.96 2600.15 1565.14 2704.01 1629.07C2914.35 1758.61 3131.73 1892.55 3327.7 2048.7C3468.37 2160.74 3585.28 2294.78 3695.74 2470.32C3794.74 2627.78 3788.65 2824.79 3782.73 3015.3C3782.3 3030.51 3781.77 3045.74 3781.34 3060.8ZM3108.15 3891.68H3108.25C3206.35 3891.59 3300.73 3872.46 3388.59 3834.53C3707.32 3697.18 3816.13 3296.52 3852.58 3069.92L3853.01 3065.14C3853.45 3049.4 3853.88 3033.56 3854.4 3017.56C3860.4 2825.5 3867.1 2607.85 3756.36 2431.71C3641.46 2249.03 3519.43 2109.32 3372.24 1992.07C3172.88 1833.24 2953.58 1698.14 2741.51 1567.49C2638.08 1503.73 2531.08 1437.89 2428.18 1370.29C2410.17 1358.47 2391.13 1345.77 2371.12 1332.37C2184.62 1207.89 1902.87 1019.74 1652.43 1019.74C1572.5 1019.74 1499.78 1038.8 1436.27 1076.37C1273.61 1172.66 1216.21 1390.21 1265.52 1722.94C1366.08 2400.39 1752.73 3100.81 2250.64 3507.2C2563.01 3762.33 2851.53 3891.68 3108.15 3891.68V3891.68Z" fill="#091F46"/>
<path fill-rule="evenodd" clip-rule="evenodd" d="M2137.12 1907.09C2312.58 1907.09 2552.47 2030 2642.87 2076.28C2857.8 2186.39 3350.84 2495.12 3285.94 2982.23C3220.7 3220.4 3052.91 3270.61 2923.65 3270.61C2800.22 3270.69 2653.82 3223.62 2521.87 3141.51C2351.45 3035.49 2205.14 2880.81 2098.77 2694.13C2043.95 2597.93 1871.2 2265.57 1948.36 2026.79C1974.02 1947.37 2037.52 1907.09 2137.12 1907.09ZM2923.64 3288.68V3288.68C3059.18 3288.68 3234.98 3236.15 3303.43 2985.81C3370.15 2486.07 2869.36 2172.05 2650.95 2060.19C2559.62 2013.39 2316.92 1889.08 2137.12 1889.08C2028.82 1889.08 1959.58 1933.53 1931.22 2021.22C1851.8 2267.04 2027.52 2605.32 2083.19 2703.1C2191.04 2892.38 2339.44 3049.3 2512.46 3156.91C2647.12 3240.67 2796.99 3288.68 2923.64 3288.68V3288.68Z" fill="#091F46"/>
</g>
<g opacity="0.2">
<path fill-rule="evenodd" clip-rule="evenodd" d="M3589.29 4866C3631.67 4889.48 3675.89 4910.42 3721.74 4928.54C3898.74 4998.44 4083.5 5025.58 4270 5033.56V5051.95C4081.57 5043.99 3894.72 5016.4 3715.21 4945.54C3658.53 4923.12 3604.39 4896.39 3553.03 4866H3589.29" fill="#091F46"/>
<path fill-rule="evenodd" clip-rule="evenodd" d="M2958.42 4866C3144.7 5078.06 3394.6 5241.98 3680.23 5331.75C3872.15 5392.08 4070.33 5421.44 4270 5435.61V5453.7C4068.77 5439.53 3868.77 5409.9 3674.92 5348.97C3380.78 5256.48 3124.01 5086.32 2934.51 4866H2958.42" fill="#091F46"/>
<path fill-rule="evenodd" clip-rule="evenodd" d="M2541.75 4866C2546.96 4873.38 2551.91 4880.77 2557.21 4888.15C2841.63 5283.74 3260.75 5559.19 3769.11 5684.73C3934.92 5725.63 4105.06 5754.3 4270 5776.63V5794.78C4103.76 5772.45 3932.15 5743.52 3764.86 5702.27C3252.22 5575.7 2829.63 5297.81 2542.69 4898.66C2534.88 4887.81 2527.4 4876.94 2519.84 4866H2541.75" fill="#091F46"/>
<path fill-rule="evenodd" clip-rule="evenodd" d="M4270 6193.54C4231.49 6182.67 4193.07 6171.95 4155.16 6161.42C3751 6048.74 3333.1 5932.24 2969.45 5706.97C2625.36 5493.72 2363.69 5201.94 2111.13 4866H2133.65C2382.54 5195.84 2640.92 5482.14 2978.83 5691.56C3340.31 5915.52 3757.01 6031.67 4159.94 6144.01C4196.18 6154.1 4233.06 6164.39 4270 6174.75V6193.54" fill="#091F46"/>
<path fill-rule="evenodd" clip-rule="evenodd" d="M53.3168 5298.2C88.5386 5150.16 144.367 5004.3 216.356 4866H236.428C163.135 5005.42 106.367 5152.78 70.7175 5302.46C-35.8027 5749.55 17.4257 6226.41 243.209 6848.6C443.45 7400.22 671.426 7890.31 920.885 8305.27C1125.82 8646.18 1379 8922.16 1647.06 9214.33C1716.36 9289.96 1788.09 9368.12 1858.27 9446.88C1931.11 9528.52 2003.64 9612.85 2073.8 9694.41C2171.97 9808.59 2273.52 9926.51 2377.16 10039.1C2397.25 10060.7 2417.69 10083.5 2438.63 10106.8C2571.05 10254.1 2721.13 10420.9 2899.03 10484.1C2947.7 10501.4 2997.44 10510.2 3046.99 10510.2H3047.09C3400.8 10510.1 3690.16 10066.4 3798.14 9875.61C3992.82 9531.65 4136.45 9157.58 4270 8789V8841.48C4140.89 9195.7 4000.9 9553.76 3813.7 9884.58C3677.63 10125 3397.06 10528.2 3047.09 10528.2H3046.99C2995.45 10528.2 2943.63 10519.1 2893.11 10501.2C2710.86 10436.5 2559.23 10267.8 2425.42 10119C2404.45 10095.7 2384.03 10073 2364.03 10051.3C2260.13 9938.62 2158.58 9820.52 2060.23 9706.33C1990.16 9624.77 1917.65 9540.53 1844.95 9458.9C1774.88 9380.3 1703.15 9302.15 1633.85 9226.61C1365.18 8933.74 1111.38 8657.14 905.585 8314.67C655.528 7898.66 427.032 7407.53 226.349 6854.78C-0.666055 6229.12 -54.0581 5749.04 53.3168 5298.2" fill="#091F46"/>
<path fill-rule="evenodd" clip-rule="evenodd" d="M4270 6781.24C4257.81 6766.26 4244.76 6751.55 4230.47 6737.27C4060.34 6567.52 3838.39 6464.72 3623.77 6365.31C3594.08 6351.45 3564.3 6337.71 3534.79 6323.78C3163.42 6148.79 2682.1 5898.53 2252.58 5513.75C2178.66 5447.5 2106.12 5373.51 2029.43 5295.16C1873.65 5136.29 1714.48 4973.95 1533.38 4866H1567.95C1740.35 4974.65 1892.8 5130.11 2042.13 5282.54C2118.66 5360.63 2191.03 5434.37 2264.51 5500.26C2692.37 5883.55 3172.21 6132.95 3542.44 6307.42C3571.88 6321.34 3601.57 6335.09 3631.35 6348.85C3847.37 6448.96 4070.7 6552.46 4243.1 6724.47C4252.58 6733.89 4261.46 6743.55 4270 6753.37V6781.24" fill="#091F46"/>
<path fill-rule="evenodd" clip-rule="evenodd" d="M325.736 5388.64C391.78 5192.07 519.613 4994.53 693.809 4866H724.967C543.365 4991.39 410.314 5193.37 342.708 5394.38C221.84 5753.71 239.326 6171.83 396.043 6672.72C541.975 7138.8 771.258 7633.25 1059.28 8102.55C1312.93 8515.91 1634.36 8837.36 2038.92 9192.84C2056.92 9208.68 2075.53 9225.22 2094.85 9242.28C2352.86 9470.97 2706.24 9784.23 3050.55 9784.23H3050.64C3105.12 9784.23 3158.19 9776.06 3208.32 9760.03C3551.16 9650.22 3748.69 9303.97 3911.14 8946.06C4065.77 8605.36 4174.62 8244.84 4270 7885.78V7955.06C4178.55 8293.39 4073.35 8632.07 3927.41 8953.62C3763.3 9315.18 3563.27 9665.28 3213.72 9777.27C3161.85 9793.81 3107.03 9802.26 3050.64 9802.26C3050.55 9802.26 3050.55 9802.26 3050.55 9802.26C2699.44 9802.26 2343.12 9486.45 2083.02 9255.84C2063.7 9238.78 2045.08 9222.26 2027.17 9206.51C1621.32 8849.89 1298.83 8527.3 1044.05 8112.05C755.241 7641.52 525.259 7145.68 378.985 6678.12C220.971 6173.48 203.563 5751.6 325.736 5388.64" fill="#091F46"/>
<path fill-rule="evenodd" clip-rule="evenodd" d="M1153.64 5350.42C1359.87 5350.42 1605.1 5461.06 1882.49 5679.23C2295.76 6004.29 2735.75 6285.97 3149.63 6541.96C3174.51 6557.36 3199.74 6572.76 3225.03 6588.16C3388.23 6687.41 3556.89 6790.14 3683.37 6933.41C3860.82 7134.52 3905.1 7395.31 3910.93 7578.68C3912.49 7629.37 3912.06 7684.8 3909.44 7748.11C3835.16 8219.67 3719.37 8700.71 3379 9017.5C3256.62 9131.29 3112.99 9189.05 2952.16 9189.05H2952.08C2655.71 9189.05 2351.27 8996.98 2147.97 8852.49C1466.61 8368.34 945.466 7586.5 680.596 6651.22C587.695 6323.11 493.241 5852.16 744.444 5551.46C855.972 5418.09 993.588 5350.42 1153.64 5350.42ZM2952.07 9207.05H2952.16C3117.7 9207.05 3265.4 9147.74 3391.1 9030.72C3735.57 8710.18 3852.38 8225.68 3927.27 7749.86C3929.98 7685.05 3930.41 7629.2 3928.84 7578.05C3922.84 7391.72 3877.78 7126.52 3696.77 6921.4C3568.55 6776.14 3398.58 6672.7 3234.26 6572.67C3209.04 6557.28 3183.89 6541.96 3159.01 6526.57C2745.57 6270.82 2306.11 5989.51 1893.45 5664.98C1612.91 5444.28 1363.97 5332.33 1153.63 5332.33C988.099 5332.33 845.794 5402.19 730.71 5539.79C474.013 5847.12 569.344 6324.07 663.37 6656.17C929.288 7595.37 1452.87 8380.68 2137.62 8867.27C2342.82 9013.16 2650.67 9207.05 2952.07 9207.05V9207.05Z" fill="#091F46"/>
<path opacity="0.8" fill-rule="evenodd" clip-rule="evenodd" d="M3476.34 7926.8C3441.89 8139.12 3341.52 8510.82 3055.33 8634.17C2976.42 8668.18 2891.62 8685.4 2803.15 8685.4C2563.42 8685.4 2290.11 8561.53 1990.78 8317.11C1506.01 7921.4 1129.52 7238.9 1031.51 6578.32C1000.79 6371.48 999.497 6104.17 1167.63 6004.65C1220.01 5973.69 1280.45 5957.94 1347.43 5957.94C1576.21 5957.94 1847.17 6138.87 2026.45 6258.56C2046.63 6272.05 2065.86 6284.84 2083.96 6296.77C2187.82 6364.96 2295.15 6431.14 2399.01 6495.07C2609.35 6624.61 2826.73 6758.55 3022.7 6914.7C3163.37 7026.74 3280.28 7160.78 3390.74 7336.32C3489.74 7493.78 3483.65 7690.79 3477.73 7881.3C3477.3 7896.51 3476.77 7911.74 3476.34 7926.8ZM2803.15 8757.68H2803.25C2901.35 8757.59 2995.73 8738.46 3083.59 8700.53C3402.32 8563.18 3511.13 8162.52 3547.58 7935.92L3548.01 7931.14C3548.45 7915.4 3548.88 7899.56 3549.4 7883.56C3555.4 7691.5 3562.1 7473.85 3451.36 7297.71C3336.46 7115.03 3214.43 6975.32 3067.24 6858.07C2867.88 6699.24 2648.58 6564.14 2436.51 6433.49C2333.08 6369.73 2226.08 6303.89 2123.18 6236.29C2105.17 6224.47 2086.13 6211.77 2066.12 6198.37C1879.62 6073.89 1597.87 5885.74 1347.43 5885.74C1267.5 5885.74 1194.78 5904.8 1131.27 5942.37C968.606 6038.66 911.207 6256.21 960.518 6588.94C1061.08 7266.39 1447.73 7966.81 1945.64 8373.2C2258.01 8628.33 2546.53 8757.68 2803.15 8757.68V8757.68Z" fill="#091F46"/>
<path fill-rule="evenodd" clip-rule="evenodd" d="M1832.12 6773.09C2007.58 6773.09 2247.47 6896 2337.87 6942.28C2552.8 7052.39 3045.84 7361.12 2980.94 7848.23C2915.7 8086.4 2747.91 8136.61 2618.65 8136.61C2495.22 8136.69 2348.82 8089.62 2216.87 8007.51C2046.45 7901.49 1900.14 7746.81 1793.77 7560.13C1738.95 7463.93 1566.2 7131.57 1643.36 6892.79C1669.02 6813.37 1732.52 6773.09 1832.12 6773.09ZM2618.64 8154.68V8154.68C2754.18 8154.68 2929.98 8102.15 2998.43 7851.81C3065.15 7352.07 2564.36 7038.05 2345.95 6926.19C2254.62 6879.39 2011.92 6755.08 1832.12 6755.08C1723.82 6755.08 1654.58 6799.53 1626.22 6887.22C1546.8 7133.04 1722.52 7471.32 1778.19 7569.1C1886.04 7758.38 2034.44 7915.3 2207.46 8022.91C2342.12 8106.67 2491.99 8154.68 2618.64 8154.68V8154.68Z" fill="#091F46"/>
</g>
</svg>
