<svg width="64" height="55" viewBox="0 0 64 55" fill="none" xmlns="http://www.w3.org/2000/svg">
<path d="M15.8186 0L10.5941 9.36764H28.0091L8.70748 42.2404L14.0771 51.2293L43.8277 0H15.8186Z" fill="url(#paint0_linear_822_106)" style="mix-blend-mode:lighten"/>
<path d="M7.40136 14.1978H17.5601L5.22449 36.4098L0 27.6638L7.40136 14.1978Z" fill="url(#paint1_linear_822_106)" style="mix-blend-mode:lighten"/>
<path d="M49.6326 3.3665L54.712 11.7095L35.7007 45.6672H53.1156L48.3265 54.303H20.4626L49.6326 3.3665Z" fill="url(#paint2_linear_822_106)" style="mix-blend-mode:lighten"/>
<path d="M58.6304 18.7353L64 27.6638L56.8889 40.3979H46.1497L58.6304 18.7353Z" fill="url(#paint3_linear_822_106)" style="mix-blend-mode:lighten"/>
<defs>
<linearGradient id="paint0_linear_822_106" x1="32" y1="0" x2="32" y2="54.303" gradientUnits="userSpaceOnUse">
<stop stop-color="white"/>
<stop offset="1" stop-color="#ABA8A8"/>
</linearGradient>
<linearGradient id="paint1_linear_822_106" x1="32" y1="0" x2="32" y2="54.303" gradientUnits="userSpaceOnUse">
<stop stop-color="white"/>
<stop offset="1" stop-color="#ABA8A8"/>
</linearGradient>
<linearGradient id="paint2_linear_822_106" x1="32" y1="0" x2="32" y2="54.303" gradientUnits="userSpaceOnUse">
<stop stop-color="white"/>
<stop offset="1" stop-color="#ABA8A8"/>
</linearGradient>
<linearGradient id="paint3_linear_822_106" x1="32" y1="0" x2="32" y2="54.303" gradientUnits="userSpaceOnUse">
<stop stop-color="white"/>
<stop offset="1" stop-color="#ABA8A8"/>
</linearGradient>
</defs>
</svg>
